<svg xmlns="http://www.w3.org/2000/svg" viewBox="0 0 673.57 106.65"><defs><style>.cls-1{fill:#323232;}.cls-2{fill:#06588f;}.cls-3{fill:#ed1b23;}.cls-4{fill:#757575;}</style></defs><g id="레이어_2" data-name="레이어 2"><g id="Layer_1" data-name="Layer 1"><path class="cls-1" d="M286.83,94.08a143.79,143.79,0,0,1-7.48-13.65q-4-8.18-4-19.46t4-19.53a143.79,143.79,0,0,1,7.48-13.65h4.73a77.29,77.29,0,0,0-7.39,17.34A60.26,60.26,0,0,0,282,61a60,60,0,0,0,2.2,15.77,77.29,77.29,0,0,0,7.39,17.34Z"/><path class="cls-1" d="M327,70.07V91h-6.57V70.07H294.78V64.39h57.79v5.68Zm5.61-23.43q4.77,5,16.45,7.9l-4.4,4.86a42.12,42.12,0,0,1-12.11-5.2q-6.15-3.77-8.84-8a28.48,28.48,0,0,1-8.07,7.73,38.89,38.89,0,0,1-12.88,5.48l-4.4-4.86q11.56-2.59,16.39-7.77t5.48-7.9H301.61V33.13h44.13v5.74H327.15Q327.81,41.62,332.57,46.64Z"/><path class="cls-1" d="M362.78,76.74A60,60,0,0,0,365,61a60.26,60.26,0,0,0-2.2-15.84,75.88,75.88,0,0,0-7.45-17.34h4.79a143.63,143.63,0,0,1,7.49,13.65q4,8.18,4,19.53t-4,19.46a143.63,143.63,0,0,1-7.49,13.65h-4.79A75.88,75.88,0,0,0,362.78,76.74Z"/><path class="cls-1" d="M409.7,79.37q-3.81-1.77-8.5-7.15a40.11,40.11,0,0,1-7-10.91q-1.38,5-6.3,10.88a38,38,0,0,1-9.19,8.41l-5.26-4.31q9.14-5.26,13.2-13.41t4.07-19.22V34.15h6.9v9.51q0,11.22,4.17,18.47A35.29,35.29,0,0,0,414.1,74.45Zm16-48.57V55h8.74v6h-8.74V91h-6.57V30.8Z"/><path class="cls-1" d="M465.39,63.43q-6,.42-11.56.55l-14.77.14V46.33h22.06V39.69H439.06V34h28.63V51.87H445.56v6.57l10.77-.07c2.84,0,6.1-.22,9.75-.51s6.49-.58,8.51-.86v5.54C472.44,62.86,469.38,63.16,465.39,63.43ZM445,90.32v-21h40.58v21Zm34-15.26H451.54v9.51H479Zm6.56-23.19V66.44H479V30.8h6.56V45.92h8.21v5.95Z"/><path class="cls-1" d="M525,79.75q-9.16.72-21.84.72h-7V74.72h11.17V55.63h6.5v19q4.07,0,12.48-.65T537,73v5.68Q534.15,79,525,79.75Zm6-28.19q-1,8-2.17,14.33h-6.5c.09-.36.51-3.3,1.28-8.82a113.68,113.68,0,0,0,1.22-13.61H499.34V37.71h32.58A106.36,106.36,0,0,1,531,51.56ZM546.23,30.8V56.32h8.61V62.2h-8.61V91h-6.56V30.8Z"/><path class="cls-1" d="M583.11,61.11a42.55,42.55,0,0,1-20.26,19.42l-4.93-4q12.95-6.09,18.33-16.21t5.91-17H561.41V37.57h28.3Q589.65,48.25,583.11,61.11ZM602.38,91V30.8H609V91Z"/><path class="cls-1" d="M648.22,61v5.27h17.87V80.94H630.36v4.18h37.17v5.2H623.27V75.75h35.79V71.5H623.27V66.31h17.86V61H615.78V55.63h57.79V61ZM635.84,48.25a30.16,30.16,0,0,1-12.64,4l-3.81-4.79q13.14-2,17.47-7.18t4.34-7.66v-2h6.89v2q0,2.46,4,7.22t17.82,7.62l-3.8,4.79a35.68,35.68,0,0,1-12.58-4.38q-6.4-3.55-8.9-7.73Q642.57,44.55,635.84,48.25Z"/><path class="cls-2" d="M31.85,0S-34.7,20.9,24.6,71.67c0,0,1.52,1.32,4.54,3.51L31,65.12C2.89,41.51-.34,13.83,31.85,0Z"/><path class="cls-3" d="M249.84,52.92v0Z"/><path class="cls-2" d="M63.46,106.52h22l.76-4.2c-7.6-2.35-14.5-4.87-20.69-7.43Z"/><path class="cls-2" d="M52.83,66.08h18L67.05,86.76A207.81,207.81,0,0,0,87.7,94.41l12.56-69.16h-22L72.29,57.93h-18l5.94-32.69-22,0L31,65.12A131,131,0,0,0,50.56,78.57Z"/><path class="cls-2" d="M23.45,106.5h22L49,87.21a160.63,160.63,0,0,1-19.85-12Z"/><path class="cls-4" d="M114.45,53.81l18.41,42.35Q143.57,97.5,155,98.05l13.45-74h-7.4L151,79.56,126.44,24h-14l-12,66.08c2.32.6,4.69,1.16,7.09,1.7Z"/><path class="cls-2" d="M251.12,46.09c.51,1.16,24.32,56.24-94.29,51.59A263.33,263.33,0,0,1,88.55,86.3l-1.44,7.92c22,6.81,49.93,12.12,83.8,12.42C268.12,107.49,257.09,59.34,251.12,46.09Z"/><path class="cls-2" d="M234.45,24,233,32.19H214.32L201,105.31H177.67L191,32.17H172.2L173.68,24Z"/></g></g></svg>