<svg xmlns="http://www.w3.org/2000/svg" viewBox="0 0 45.67 29.86">
                    <defs>
                        <style>.white{fill:#fff;}.lightblue{fill:#3e89ff;}</style>
                    </defs>
                    <g id="hntLogo1x1_01" data-name="hntLogo1x1_01">
                        <g id="hntLogo1x1_02" data-name="hntLogo1x1_02">
                            <path class="white" d="M1.32,29.86a16.13,16.13,0,0,1-.86-1.57A5,5,0,0,1,0,26.06a5,5,0,0,1,.46-2.24,15.84,15.84,0,0,1,.86-1.56h.54a8.61,8.61,0,0,0-.85,2,6.87,6.87,0,0,0-.25,1.82A6.8,6.8,0,0,0,1,27.87a8.86,8.86,0,0,0,.85,2Z"/>
                            <path class="white" d="M5.92,27.1v2.4H5.17V27.1H2.23v-.65H8.86v.65Zm.64-2.68a4,4,0,0,0,1.89.9l-.51.56a4.71,4.71,0,0,1-1.38-.6,3.08,3.08,0,0,1-1-.91,3.39,3.39,0,0,1-.92.88,4.63,4.63,0,0,1-1.48.63l-.5-.56a3.55,3.55,0,0,0,1.87-.89,2.44,2.44,0,0,0,.63-.9H3v-.66H8.07v.66H5.94A2.49,2.49,0,0,0,6.56,24.42Z"/>
                            <path class="white" d="M10,27.87a6.8,6.8,0,0,0,.25-1.81A6.87,6.87,0,0,0,10,24.24a8.68,8.68,0,0,0-.86-2h.55a15.84,15.84,0,0,1,.86,1.56A5,5,0,0,1,11,26.06a5,5,0,0,1-.46,2.23,16.13,16.13,0,0,1-.86,1.57H9.17A8.93,8.93,0,0,0,10,27.87Z"/>
                            <path class="white" d="M15.41,28.17a3.33,3.33,0,0,1-1-.82,4.7,4.7,0,0,1-.8-1.25,3.49,3.49,0,0,1-.72,1.25,4.26,4.26,0,0,1-1.06,1l-.6-.49a3.72,3.72,0,0,0,1.51-1.54,4.76,4.76,0,0,0,.47-2.2V23H14v1.1a4.17,4.17,0,0,0,.48,2.11,4.07,4.07,0,0,0,1.41,1.42Zm1.83-5.57v2.77h1v.69h-1V29.5h-.76V22.6Z"/>
                            <path class="white" d="M21.79,26.34l-1.32.06-1.7,0v-2H21.3v-.76H18.77V23h3.29V25H19.52v.75h1.23c.33,0,.7,0,1.12-.06s.75-.06,1-.1v.64C22.6,26.28,22.25,26.31,21.79,26.34Zm-2.34,3.09V27h4.66v2.41Zm3.9-1.75H20.21v1.09h3.14ZM24.11,25v1.67h-.76V22.6h.76v1.73h.94V25Z"/>
                            <path class="white" d="M28.63,28.21c-.7.06-1.54.09-2.51.09h-.79v-.66h1.28V25.45h.74v2.18c.31,0,.79,0,1.43-.08s1-.08,1.23-.11v.65Q29.68,28.14,28.63,28.21ZM29.32,25c-.08.62-.16,1.16-.25,1.64h-.75s.06-.37.15-1a13.48,13.48,0,0,0,.14-1.56H25.69v-.66h3.73A12.06,12.06,0,0,1,29.32,25Zm1.74-2.38v2.93h1v.67h-1v3.3h-.75V22.6Z"/>
                            <path class="white" d="M35.29,26.08A4.86,4.86,0,0,1,33,28.3l-.57-.46A4.38,4.38,0,0,0,34.51,26,5.2,5.2,0,0,0,35.18,24H32.8v-.66h3.25A6.24,6.24,0,0,1,35.29,26.08ZM37.5,29.5V22.6h.76v6.9Z"/>
                            <path class="white" d="M42.76,26.07v.6h2.05v1.68h-4.1v.48H45v.6H39.9V27.75H44v-.48H39.9v-.6H42v-.6H39v-.62h6.63v.62ZM41.34,24.6a3.39,3.39,0,0,1-1.45.46l-.44-.55a3.2,3.2,0,0,0,2-.82,1.74,1.74,0,0,0,.49-.88v-.23h.79v.23a1.62,1.62,0,0,0,.46.83,3.78,3.78,0,0,0,2,.87l-.43.55a4.07,4.07,0,0,1-1.44-.5,2.68,2.68,0,0,1-1-.88A2.3,2.3,0,0,1,41.34,24.6Z"/>
                            <path class="lightblue" d="M5.71,0S-6.22,3.75,4.41,12.84c0,0,.27.24.81.63l.33-1.8C.52,7.44-.06,2.48,5.71,0Z"/>
                            <path class="lightblue" d="M11.37,19.09h4l.14-.75c-1.36-.42-2.6-.88-3.71-1.33Z"/>
                            <path class="lightblue" d="M9.47,11.84h3.22L12,15.55a36.18,36.18,0,0,0,3.7,1.37L18,4.52H14L13,10.38H9.73L10.8,4.52h-4l-1.3,7.15a23.92,23.92,0,0,0,3.51,2.41Z"/>
                            <path class="lightblue" d="M4.2,19.08h4l.63-3.46a28.47,28.47,0,0,1-3.56-2.16Z"/>
                            <path class="white" d="M20.51,9.64l3.3,7.59c1.28.16,2.6.28,4,.34L30.19,4.3H28.86l-1.81,10-4.39-10H20.15L18,16.14c.42.1.84.21,1.27.3Z"/>
                            <path class="lightblue" d="M45,8.26c.09.21,4.36,10.08-16.9,9.24a47,47,0,0,1-12.23-2l-.26,1.41a52.08,52.08,0,0,0,15,2.23C48.05,19.26,46.07,10.63,45,8.26Z"/>
                            <path class="lightblue" d="M42,4.31l-.26,1.46H38.41L36,18.87H31.84l2.38-13.1H30.86l.26-1.46Z"/>
                        </g>
                    </g>
                </svg>